<svg width="17" height="17" viewBox="0 0 17 17" fill="none" xmlns="http://www.w3.org/2000/svg">
<path d="M16.9428 8.37994L14.2316 6.2402C14.2089 6.22235 14.1816 6.21126 14.1529 6.20819C14.1242 6.20512 14.0952 6.21019 14.0693 6.22284C14.0434 6.23548 14.0215 6.25517 14.0062 6.27966C13.991 6.30415 13.9829 6.33245 13.983 6.36131V7.7361H9.26584V3.0189H10.6427C10.7702 3.0189 10.8425 2.87016 10.7638 2.77029L8.62202 0.0589556C8.60784 0.0406083 8.58965 0.0257542 8.56884 0.0155341C8.54803 0.00531407 8.52515 0 8.50196 0C8.47878 0 8.4559 0.00531407 8.43509 0.0155341C8.41428 0.0257542 8.39609 0.0406083 8.38191 0.0589556L6.24008 2.77029C6.22224 2.79297 6.21115 2.82023 6.20807 2.84892C6.205 2.87762 6.21008 2.90661 6.22272 2.93255C6.23536 2.9585 6.25506 2.98036 6.27955 2.99563C6.30404 3.0109 6.33234 3.01897 6.3612 3.0189H7.73596V7.7361H3.01884V6.35919C3.01884 6.2317 2.8701 6.15945 2.77024 6.23807L0.0589545 8.37994C0.0406075 8.39412 0.0257537 8.41231 0.0155339 8.43312C0.00531397 8.45393 0 8.47681 0 8.5C0 8.52318 0.00531397 8.54606 0.0155339 8.56687C0.0257537 8.58768 0.0406075 8.60587 0.0589545 8.62005L2.76811 10.7619C2.86798 10.8405 3.01672 10.7704 3.01672 10.6408V9.26601H7.73384V13.9832H6.35695C6.22946 13.9832 6.15721 14.132 6.23583 14.2318L8.37766 16.941C8.43928 17.0197 8.55827 17.0197 8.61777 16.941L10.7596 14.2318C10.8382 14.132 10.7681 13.9832 10.6385 13.9832H9.26584V9.26601H13.983V10.6429C13.983 10.7704 14.1317 10.8427 14.2316 10.764L16.9407 8.62218C16.959 8.6078 16.9738 8.5895 16.9841 8.56862C16.9944 8.54775 16.9998 8.52483 17 8.50157C17.0002 8.47831 16.9952 8.4553 16.9853 8.43424C16.9754 8.41319 16.9609 8.39463 16.9428 8.37994V8.37994Z" fill="black"/>
</svg>
